<svg xmlns:mydata="http://www.w3.org/2000/svg" mydata:contrastcolor="ffffff" mydata:template="Contrast" mydata:presentation="2.5" mydata:layouttype="undefined" mydata:specialfontid="undefined" mydata:id1="058" mydata:id2="185" mydata:companyname="Wearable FIT" mydata:companytagline="" version="1.1" xmlns="http://www.w3.org/2000/svg" xmlns:xlink="http://www.w3.org/1999/xlink" viewBox="0 35 550 400" width="550"  height="400" ><g fill="#000000" fill-rule="nonzero" stroke="none" stroke-width="1" stroke-linecap="butt" stroke-linejoin="miter" stroke-miterlimit="10" stroke-dasharray="" stroke-dashoffset="0" font-family="none" font-weight="none" font-size="none" text-anchor="none" style="mix-blend-mode: normal"><g data-paper-data="{&quot;isGlobalGroup&quot;:true,&quot;bounds&quot;:{&quot;x&quot;:106.76539105088577,&quot;y&quot;:115.00000000000001,&quot;width&quot;:336.4692178982284,&quot;height&quot;:240}}"><g data-paper-data="{&quot;isSecondaryText&quot;:true}"><path d="M247.34565,355h-1.28776v-10.23212h5.71795v1.13379h-4.43019v3.62533h4.15724v1.12679h-4.15724z" data-paper-data="{&quot;glyphName&quot;:&quot;F&quot;,&quot;glyphIndex&quot;:0,&quot;firstGlyphOfWord&quot;:true,&quot;word&quot;:1}"></path><path d="M275.21955,355h-3.69532v-0.74186l1.20378,-0.27295v-8.18849l-1.20378,-0.28695v-0.74186h3.69532v0.74186l-1.20378,0.28695v8.18849l1.20378,0.27295z" data-paper-data="{&quot;glyphName&quot;:&quot;I&quot;,&quot;glyphIndex&quot;:1,&quot;word&quot;:1}"></path><path d="M300.7647,355h-1.29476v-9.09833h-3.19841v-1.13379h7.67059v1.13379h-3.17742z" data-paper-data="{&quot;glyphName&quot;:&quot;T&quot;,&quot;glyphIndex&quot;:2,&quot;lastGlyphOfWord&quot;:true,&quot;word&quot;:1}"></path></g><g data-paper-data="{&quot;isPrimaryText&quot;:true}"><path d="M118.6494,327.80867l7.18098,-29.28018c0.16857,-0.70798 0.47199,-1.23897 0.91026,-1.59296c0.43828,-0.35399 0.92712,-0.53099 1.46654,-0.53099c0.47199,0 0.93555,0.177 1.39068,0.53099c0.45513,0.35399 0.76698,0.88498 0.93555,1.59296l7.13041,29.28018l8.44523,-30.03873c0.13485,-0.47199 0.35399,-0.80912 0.65741,-1.01141c0.30342,-0.20228 0.64056,-0.30342 1.01141,-0.30342c0.43828,0 0.84284,0.14328 1.21369,0.42985c0.37085,0.28656 0.55627,0.69956 0.55627,1.23897c0,0.13485 -0.03371,0.33714 -0.10114,0.60684l-9.20379,31.35356c-0.20228,0.64056 -0.55627,1.11255 -1.06198,1.41597c-0.5057,0.30342 -1.01141,0.45513 -1.51711,0.45513c-0.47199,0 -0.97769,-0.14328 -1.51711,-0.42985c-0.53942,-0.28656 -0.89341,-0.76698 -1.06198,-1.44125l-6.9787,-27.81364l-6.9787,27.81364c-0.16857,0.64056 -0.49727,1.11255 -0.98612,1.41597c-0.48885,0.30342 -0.98612,0.45513 -1.49182,0.45513c-0.57313,0 -1.10412,-0.15171 -1.59296,-0.45513c-0.48885,-0.30342 -0.81755,-0.77541 -0.98612,-1.41597l-9.20379,-31.35356c-0.06743,-0.26971 -0.10114,-0.47199 -0.10114,-0.60684c0,-0.5057 0.18542,-0.91869 0.55627,-1.23897c0.37085,-0.32028 0.79227,-0.48042 1.26426,-0.48042c0.37085,0 0.70798,0.118 1.01141,0.35399c0.30342,0.23599 0.53942,0.58999 0.70798,1.06198z" data-paper-data="{&quot;glyphName&quot;:&quot;W&quot;,&quot;glyphIndex&quot;:0,&quot;firstGlyphOfWord&quot;:true,&quot;word&quot;:1}"></path><path d="M187.55138,296.65739c0.5057,0 0.92712,0.16857 1.26426,0.5057c0.33714,0.33714 0.5057,0.75855 0.5057,1.26426c0,0.47199 -0.16857,0.88498 -0.5057,1.23897c-0.33714,0.35399 -0.75855,0.53099 -1.26426,0.53099h-15.4745v10.82204h14.6148c0.5057,0 0.92712,0.177 1.26426,0.53099c0.33714,0.35399 0.5057,0.78384 0.5057,1.28954c0,0.47199 -0.16857,0.89341 -0.5057,1.26426c-0.33714,0.37085 -0.75855,0.55627 -1.26426,0.55627h-14.6148v13.50226h15.37336c0.47199,0 0.88498,0.16857 1.23897,0.5057c0.35399,0.33714 0.53099,0.75855 0.53099,1.26426c0,0.5057 -0.177,0.92712 -0.53099,1.26426c-0.35399,0.33714 -0.76698,0.5057 -1.23897,0.5057h-17.19389c-0.5057,0 -0.91869,-0.16857 -1.23897,-0.5057c-0.32028,-0.33714 -0.48042,-0.75855 -0.48042,-1.26426v-31.50527c0,-0.5057 0.16014,-0.92712 0.48042,-1.26426c0.32028,-0.33714 0.73327,-0.5057 1.23897,-0.5057z" data-paper-data="{&quot;glyphName&quot;:&quot;E&quot;,&quot;glyphIndex&quot;:1,&quot;word&quot;:1}"></path><path d="M230.81424,320.32427h-15.9802l-4.50075,10.31633c-0.20228,0.47199 -0.46356,0.80912 -0.78384,1.01141c-0.32028,0.20228 -0.64898,0.30342 -0.98612,0.30342c-0.43828,0 -0.81755,-0.15171 -1.13783,-0.45513c-0.32028,-0.30342 -0.48042,-0.70798 -0.48042,-1.21369c0,-0.33714 0.06743,-0.65741 0.20228,-0.96083l13.95739,-31.60641c0.23599,-0.53942 0.49727,-0.89341 0.78384,-1.06198c0.28656,-0.16857 0.61527,-0.25285 0.98612,-0.25285c0.37085,0 0.69113,0.08428 0.96083,0.25285c0.26971,0.16857 0.52256,0.52256 0.75855,1.06198l13.90682,31.60641c0.13485,0.30342 0.20228,0.6237 0.20228,0.96083c0,0.5057 -0.16014,0.91026 -0.48042,1.21369c-0.32028,0.30342 -0.69956,0.45513 -1.13783,0.45513c-0.33714,0 -0.66584,-0.10114 -0.98612,-0.30342c-0.32028,-0.20228 -0.58156,-0.53942 -0.78384,-1.01141zM216.30057,316.98663h13.04713l-6.52356,-14.9688z" data-paper-data="{&quot;glyphName&quot;:&quot;A&quot;,&quot;glyphIndex&quot;:2,&quot;word&quot;:1}"></path><path d="M268.41322,296.65739c1.38225,0 2.68865,0.26971 3.9192,0.80912c1.23054,0.53942 2.3178,1.27268 3.26178,2.19981c0.94398,0.92712 1.68568,2.00595 2.22509,3.2365c0.53942,1.23054 0.80912,2.53694 0.80912,3.9192c0,1.17997 -0.19385,2.30938 -0.58156,3.38821c-0.38771,1.07883 -0.92712,2.0481 -1.61825,2.90779c-0.69113,0.85969 -1.49182,1.59296 -2.40209,2.19981c-0.91026,0.60684 -1.88796,1.04512 -2.93308,1.31483l6.37185,12.54142c0.16857,0.40456 0.25285,0.7417 0.25285,1.01141c0,0.5057 -0.18542,0.92712 -0.55627,1.26426c-0.37085,0.33714 -0.79227,0.5057 -1.26426,0.5057c-0.26971,0 -0.54784,-0.08428 -0.83441,-0.25285c-0.28656,-0.16857 -0.51413,-0.43828 -0.6827,-0.80912l-7.02927,-13.85625h-6.52356v12.84485c0,1.38225 -0.58999,2.07338 -1.76996,2.07338c-1.17997,0 -1.76996,-0.69113 -1.76996,-2.07338v-30.79729c0,-1.61825 0.80912,-2.42737 2.42737,-2.42737zM260.82768,313.44672h7.63611c0.94398,0 1.82053,-0.177 2.62965,-0.53099c0.80912,-0.35399 1.50868,-0.83441 2.09867,-1.44125c0.58999,-0.60684 1.05355,-1.31483 1.39068,-2.12395c0.33714,-0.80912 0.5057,-1.66882 0.5057,-2.57908c0,-0.91026 -0.16857,-1.76153 -0.5057,-2.5538c-0.33714,-0.79227 -0.8007,-1.48339 -1.39068,-2.07338c-0.58999,-0.58999 -1.28954,-1.06198 -2.09867,-1.41597c-0.80912,-0.35399 -1.68568,-0.53099 -2.62965,-0.53099h-7.63611z" data-paper-data="{&quot;glyphName&quot;:&quot;R&quot;,&quot;glyphIndex&quot;:3,&quot;word&quot;:1}"></path><path d="M320.67759,320.32427h-15.9802l-4.50075,10.31633c-0.20228,0.47199 -0.46356,0.80912 -0.78384,1.01141c-0.32028,0.20228 -0.64898,0.30342 -0.98612,0.30342c-0.43828,0 -0.81755,-0.15171 -1.13783,-0.45513c-0.32028,-0.30342 -0.48042,-0.70798 -0.48042,-1.21369c0,-0.33714 0.06743,-0.65741 0.20228,-0.96083l13.95739,-31.60641c0.23599,-0.53942 0.49727,-0.89341 0.78384,-1.06198c0.28656,-0.16857 0.61527,-0.25285 0.98612,-0.25285c0.37085,0 0.69113,0.08428 0.96083,0.25285c0.26971,0.16857 0.52256,0.52256 0.75855,1.06198l13.90682,31.60641c0.13485,0.30342 0.20228,0.6237 0.20228,0.96083c0,0.5057 -0.16014,0.91026 -0.48042,1.21369c-0.32028,0.30342 -0.69956,0.45513 -1.13783,0.45513c-0.33714,0 -0.66584,-0.10114 -0.98612,-0.30342c-0.32028,-0.20228 -0.58156,-0.53942 -0.78384,-1.01141zM306.16392,316.98663h13.04713l-6.52356,-14.9688z" data-paper-data="{&quot;glyphName&quot;:&quot;A&quot;,&quot;glyphIndex&quot;:4,&quot;word&quot;:1}"></path><path d="M355.49521,296.65739c1.2474,0 2.42737,0.23599 3.53992,0.70798c1.11255,0.47199 2.08181,1.11255 2.90779,1.92167c0.82598,0.80912 1.48339,1.76996 1.97224,2.8825c0.48885,1.11255 0.73327,2.30938 0.73327,3.59049c0,2.56223 -0.99455,4.68618 -2.98365,6.37185c0.94398,0.30342 1.82896,0.75855 2.65494,1.3654c0.82598,0.60684 1.54239,1.33168 2.14924,2.17452c0.60684,0.84284 1.08726,1.76153 1.44125,2.75608c0.35399,0.99455 0.53099,2.03124 0.53099,3.11007c0,1.38225 -0.26971,2.68865 -0.80912,3.9192c-0.53942,1.23054 -1.28111,2.30938 -2.22509,3.2365c-0.94398,0.92712 -2.03124,1.66039 -3.26178,2.19981c-1.23054,0.53942 -2.53694,0.80912 -3.9192,0.80912h-9.3555c-0.5057,0 -0.91869,-0.16857 -1.23897,-0.5057c-0.32028,-0.33714 -0.48042,-0.75855 -0.48042,-1.26426v-31.50527c0,-0.5057 0.16014,-0.92712 0.48042,-1.26426c0.32028,-0.33714 0.73327,-0.5057 1.23897,-0.5057zM350.69104,328.16266h7.58554c0.91026,0 1.76996,-0.177 2.57908,-0.53099c0.80912,-0.35399 1.51711,-0.82598 2.12395,-1.41597c0.60684,-0.58999 1.07883,-1.28111 1.41597,-2.07338c0.33714,-0.79227 0.5057,-1.64353 0.5057,-2.5538c0,-0.91026 -0.16857,-1.76996 -0.5057,-2.57908c-0.33714,-0.80912 -0.80912,-1.51711 -1.41597,-2.12395c-0.60684,-0.60684 -1.31483,-1.08726 -2.12395,-1.44125c-0.80912,-0.35399 -1.66882,-0.53099 -2.57908,-0.53099h-7.58554zM350.69104,311.42391h4.80417c1.61825,0 2.94993,-0.54784 3.99505,-1.64353c1.04512,-1.09569 1.56768,-2.4358 1.56768,-4.02034c0,-0.77541 -0.14328,-1.50025 -0.42985,-2.17452c-0.28656,-0.67427 -0.67427,-1.26426 -1.16312,-1.76996c-0.48885,-0.5057 -1.0704,-0.90184 -1.74467,-1.1884c-0.67427,-0.28656 -1.41597,-0.42985 -2.22509,-0.42985h-4.80417z" data-paper-data="{&quot;glyphName&quot;:&quot;B&quot;,&quot;glyphIndex&quot;:5,&quot;word&quot;:1}"></path><path d="M390.76797,328.16266h11.63116c1.38225,0 2.07338,0.58999 2.07338,1.76996c0,1.17997 -0.69113,1.76996 -2.07338,1.76996h-13.45169c-0.5057,0 -0.91869,-0.16857 -1.23897,-0.5057c-0.32028,-0.33714 -0.48042,-0.75855 -0.48042,-1.26426v-31.50527c0,-1.34854 0.57313,-2.02281 1.71939,-2.02281c1.21369,0 1.82053,0.69113 1.82053,2.07338z" data-paper-data="{&quot;glyphName&quot;:&quot;L&quot;,&quot;glyphIndex&quot;:6,&quot;word&quot;:1}"></path><path d="M441.46465,296.65739c0.5057,0 0.92712,0.16857 1.26426,0.5057c0.33714,0.33714 0.5057,0.75855 0.5057,1.26426c0,0.47199 -0.16857,0.88498 -0.5057,1.23897c-0.33714,0.35399 -0.75855,0.53099 -1.26426,0.53099h-15.4745v10.82204h14.6148c0.5057,0 0.92712,0.177 1.26426,0.53099c0.33714,0.35399 0.5057,0.78384 0.5057,1.28954c0,0.47199 -0.16857,0.89341 -0.5057,1.26426c-0.33714,0.37085 -0.75855,0.55627 -1.26426,0.55627h-14.6148v13.50226h15.37336c0.47199,0 0.88498,0.16857 1.23897,0.5057c0.35399,0.33714 0.53099,0.75855 0.53099,1.26426c0,0.5057 -0.177,0.92712 -0.53099,1.26426c-0.35399,0.33714 -0.76698,0.5057 -1.23897,0.5057h-17.19389c-0.5057,0 -0.91869,-0.16857 -1.23897,-0.5057c-0.32028,-0.33714 -0.48042,-0.75855 -0.48042,-1.26426v-31.50527c0,-0.5057 0.16014,-0.92712 0.48042,-1.26426c0.32028,-0.33714 0.73327,-0.5057 1.23897,-0.5057z" data-paper-data="{&quot;glyphName&quot;:&quot;E&quot;,&quot;glyphIndex&quot;:7,&quot;lastGlyphOfWord&quot;:true,&quot;word&quot;:1}"></path></g><g data-paper-data="{&quot;fillRule&quot;:&quot;nonzero&quot;,&quot;fillRuleOriginal&quot;:&quot;nonzero&quot;,&quot;isIcon&quot;:true,&quot;iconStyle&quot;:&quot;standalone&quot;,&quot;selectedEffects&quot;:{&quot;container&quot;:&quot;hexagon_simple_filledplus_rounded_upright&quot;,&quot;transformation&quot;:&quot;&quot;,&quot;pattern&quot;:&quot;&quot;},&quot;bounds&quot;:{&quot;x&quot;:210.58341538643324,&quot;y&quot;:115.00000000000001,&quot;width&quot;:128.83316922713342,&quot;height&quot;:141.55558154876206},&quot;widthRatioIconToContainer&quot;:0.7761411052604318,&quot;heightRatioIconToContainer&quot;:0.5566797762558717,&quot;relativeBoundsIconToContainer&quot;:{&quot;top&quot;:-0.07605116278753783,&quot;left&quot;:0.0005148280111958242},&quot;iconType&quot;:&quot;initial&quot;,&quot;initialText&quot;:&quot;WF&quot;,&quot;rawInitialId&quot;:1092,&quot;monogramSpecial&quot;:&quot;emblem&quot;,&quot;suitableAsStandaloneIcon&quot;:true}"><path d="M266.51931,125.39074c5.6537,-3.26417 11.3074,-3.26417 16.9611,0l39.57591,22.84916c5.6537,3.26417 8.48055,8.16041 8.48055,14.68874v45.69833c0,6.52833 -2.82685,11.42458 -8.48055,14.68874l-39.57591,22.84916c-5.6537,3.26417 -11.3074,3.26417 -16.9611,0l-39.57591,-22.84916c-5.6537,-3.26417 -8.48055,-8.16041 -8.48055,-14.68874v-45.69833c0,-6.52833 2.82685,-11.42458 8.48055,-14.68874zM267.87325,214.4129c0.35819,0 0.89547,-0.1791 1.43275,-0.35819c1.61184,-0.53728 2.8655,-2.14912 2.8655,-4.11915v-70.02556c0,-2.32821 -1.97003,-4.29824 -4.29824,-4.29824c-2.50731,0 -4.47734,1.97003 -4.47734,4.29824v57.66811l-11.46198,-14.50657c-0.71637,-0.89547 -1.97003,-1.61184 -3.40278,-1.61184c-1.25366,0 -2.50731,0.71637 -3.40278,1.61184l-11.46198,14.50657v-35.9978c0,-2.32821 -1.97003,-4.29824 -4.29824,-4.29824c-2.32821,0 -4.29824,1.97003 -4.29824,4.29824v48.35525c0,1.97003 1.07456,3.58187 2.8655,4.11915c1.79093,0.71637 3.58187,0 4.83552,-1.43275l15.76023,-19.87937l15.93932,19.87937c0.71637,1.07456 1.97003,1.79093 3.40278,1.79093zM282.34765,214.4129c2.32882,0 4.29936,-1.97054 4.29936,-4.29936v-19.88455h34.03663c2.50796,0 4.29936,-1.97054 4.29936,-4.29936c0,-2.50796 -1.7914,-4.4785 -4.29936,-4.4785h-34.03663v-34.03663l31.88695,18.09315c2.14968,1.07484 4.83678,0.35828 5.91162,-1.7914c1.25398,-1.97054 0.53742,-4.65765 -1.61226,-5.73248l-38.33599,-21.85509c-1.43312,-0.71656 -3.04538,-0.71656 -4.29936,0.17914c-1.43312,0.71656 -2.14968,2.14968 -2.14968,3.5828v70.22294c0,2.32882 1.7914,4.29936 4.29936,4.29936zM339.41652,208.62697l-0.00065,0.22588l-0.01306,0.71551c-0.00043,0.01306 -0.00087,0.02611 -0.0013,0.03917l-0.02938,0.6907c-0.00043,0.01349 -0.00109,0.02698 -0.00196,0.04048l-0.04635,0.68939c-0.00087,0.01436 -0.00196,0.02851 -0.00326,0.04243l-0.06332,0.68809c-0.0013,0.01436 -0.00283,0.02872 -0.00457,0.04309l-0.08161,0.68678c-0.00174,0.0148 -0.0037,0.02959 -0.00587,0.04439l-0.09988,0.68417c-0.00217,0.01523 -0.00457,0.03046 -0.00718,0.0457l-0.11947,0.6809c-0.00261,0.01567 -0.00566,0.03133 -0.00914,0.047l-0.13905,0.67699c-0.00304,0.0161 -0.00653,0.0322 -0.01045,0.04831l-0.15929,0.67307c-0.00391,0.01654 -0.00805,0.03286 -0.01241,0.04896l-0.17953,0.66785c-0.00435,0.01654 -0.00914,0.03307 -0.01436,0.04962l-0.20042,0.66197c-0.00522,0.01697 -0.01067,0.03373 -0.01632,0.05027l-0.22131,0.65479c-0.00609,0.01741 -0.01219,0.0346 -0.01828,0.05158l-0.2435,0.64696c-0.00609,0.01697 -0.01284,0.03395 -0.02024,0.05092l-0.2644,0.63912c-0.00696,0.01697 -0.01436,0.03395 -0.0222,0.05092l-0.28594,0.62933c-0.0074,0.01741 -0.01545,0.0346 -0.02416,0.05158l-0.30683,0.61889c-0.00827,0.01697 -0.01697,0.03373 -0.02611,0.05027l-0.32837,0.60844c-0.00914,0.01697 -0.01849,0.03351 -0.02807,0.04962l-0.34862,0.59669c-0.00958,0.01654 -0.01936,0.03286 -0.02938,0.04896l-0.3695,0.58428c-0.01001,0.0161 -0.02045,0.03199 -0.03133,0.04765l-0.38844,0.57123c-0.01088,0.01567 -0.02176,0.03112 -0.03264,0.04635l-0.40802,0.55752c-0.01132,0.01523 -0.02263,0.03003 -0.03395,0.04439l-0.42695,0.54381c-0.01132,0.01436 -0.02285,0.02851 -0.0346,0.04243l-0.44458,0.52945c-0.01132,0.01393 -0.02307,0.02764 -0.03525,0.04113l-0.46156,0.51443c-0.01175,0.01306 -0.02372,0.0259 -0.03591,0.03852l-0.47722,0.50007c-0.01219,0.01219 -0.02438,0.02438 -0.03656,0.03656l-0.49289,0.4844c-0.01219,0.01175 -0.02438,0.02329 -0.03656,0.0346l-0.50725,0.46938c-0.01219,0.01132 -0.02438,0.0222 -0.03656,0.03264l-0.52161,0.45437c-0.01175,0.01045 -0.02372,0.02067 -0.03591,0.03068l-0.53402,0.4387c-0.01219,0.01001 -0.02416,0.01958 -0.03591,0.02872l-0.54642,0.42434c-0.01175,0.00871 -0.02351,0.01762 -0.03525,0.02677l-0.55752,0.40867c-0.01132,0.00871 -0.02285,0.01719 -0.0346,0.02546l-0.56796,0.39431c-0.01132,0.00784 -0.02263,0.01545 -0.03395,0.02285l-0.57776,0.3806c-0.01088,0.0074 -0.02198,0.01458 -0.03329,0.02154l-0.58625,0.36624c-0.01088,0.00653 -0.02198,0.01306 -0.03329,0.01958l-0.59473,0.35253l-4.27475,2.46836l-0.59865,0.34535l-0.59865,0.346l-0.59865,0.34535l-5.38718,3.1101l-4.18988,2.4194l-1.79594,1.0367l-0.59865,0.346l-1.1973,0.6907l-0.59865,0.346l-0.59865,0.34535l-0.59865,0.346l-5.38718,3.1101l-3.59189,2.0734l-5.38718,3.11075l-2.39459,1.38205l-1.79594,1.03735l-0.1952,0.11164l-0.62672,0.34666c-0.01132,0.00653 -0.02285,0.01284 -0.0346,0.01893l-0.61236,0.31989c-0.01219,0.00609 -0.02438,0.01219 -0.03656,0.01828l-0.62019,0.30488c-0.01262,0.00609 -0.02524,0.01219 -0.03787,0.01828l-0.62737,0.28921c-0.01349,0.00609 -0.02677,0.01197 -0.03982,0.01762l-0.63521,0.27288c-0.01393,0.00566 -0.02785,0.01132 -0.04178,0.01697l-0.64232,0.25526c-0.01445,0.00566 -0.02896,0.0111 -0.04354,0.01632l-0.64924,0.23763c-0.01506,0.00522 -0.03018,0.01045 -0.04537,0.01567l-0.65583,0.21805c-0.01567,0.00522 -0.03138,0.01023 -0.04714,0.01501l-0.66204,0.19846c-0.01628,0.00478 -0.03262,0.00936 -0.04903,0.01371l-0.66778,0.17823c-0.0168,0.00478 -0.03364,0.00914 -0.05053,0.01306l-0.67307,0.15668c-0.01732,0.00435 -0.03471,0.00827 -0.05216,0.01175l-0.67777,0.13514c-0.01776,0.00348 -0.03558,0.00675 -0.05347,0.0098l-0.68182,0.11294c-0.01819,0.00304 -0.03641,0.00587 -0.05464,0.00849l-0.68528,0.09009c-0.01849,0.00261 -0.03704,0.00478 -0.05562,0.00653l-0.68789,0.06724c-0.01876,0.00174 -0.03754,0.00326 -0.05634,0.00457l-0.68979,0.04374c-0.01893,0.00087 -0.03789,0.00174 -0.05686,0.00261l-0.69089,0.01958c-0.01902,0.00087 -0.03806,0.00109 -0.05712,0.00065l-0.69115,-0.00326c-0.01898,-0.00043 -0.03797,-0.00087 -0.05699,-0.0013l-0.69064,-0.02807c-0.01893,-0.00043 -0.03784,-0.00152 -0.05673,-0.00326l-0.68926,-0.05092c-0.01876,-0.0013 -0.03747,-0.00304 -0.05614,-0.00522l-0.68717,-0.07442c-0.01845,-0.00217 -0.03688,-0.00457 -0.05529,-0.00718l-0.68424,-0.09727c-0.01815,-0.00261 -0.03625,-0.00566 -0.05431,-0.00914l-0.68064,-0.12012c-0.01776,-0.00304 -0.03545,-0.00631 -0.05308,-0.0098l-0.67634,-0.14297c-0.01728,-0.00348 -0.03447,-0.0074 -0.05158,-0.01175l-0.6715,-0.16386c-0.01675,-0.00391 -0.03345,-0.00827 -0.05008,-0.01306l-0.66602,-0.18475c-0.01619,-0.00435 -0.03232,-0.00893 -0.04838,-0.01371l-0.66014,-0.20499c-0.01563,-0.00478 -0.03116,-0.0098 -0.04661,-0.01501l-0.65375,-0.22458c-0.01501,-0.00522 -0.02995,-0.01067 -0.04478,-0.01632l-0.64709,-0.24285c-0.01436,-0.00522 -0.02866,-0.01088 -0.04289,-0.01697l-0.6401,-0.26048c-0.01375,-0.00566 -0.02744,-0.01154 -0.04107,-0.01762l-0.63279,-0.27811c-0.01314,-0.00566 -0.02622,-0.01154 -0.03923,-0.01762l-0.62541,-0.29443c-0.01249,-0.00566 -0.02494,-0.01175 -0.03734,-0.01828l-0.61778,-0.30944c-0.01197,-0.00609 -0.02383,-0.01219 -0.03558,-0.01828l-0.6102,-0.32511c-0.01136,-0.00609 -0.02263,-0.01219 -0.03382,-0.01828l-0.60243,-0.33882l-1.88042,-1.08566l-0.59865,-0.34535l-5.38737,-3.11075l-1.79582,-1.0367l-0.59858,-0.34535l-0.59858,-0.346l-0.59865,-0.34535l-1.79575,-1.0367l-4.78879,-2.76475l-2.99304,-1.72805l-1.19716,-0.69135l-5.38744,-3.11075l-1.19716,-0.6907l-2.3944,-1.3827l-0.59865,-0.34535l-0.59858,-0.346l-0.59858,-0.34535l-5.3874,-3.11075l-0.5986,-0.34535l-0.5986,-0.34535l-0.19494,-0.11359l-0.61356,-0.3695c-0.01114,-0.00696 -0.0222,-0.01393 -0.03317,-0.02089l-0.58349,-0.37015c-0.0114,-0.0074 -0.02272,-0.0148 -0.03394,-0.0222l-0.57427,-0.38452c-0.01164,-0.00784 -0.02317,-0.01588 -0.0346,-0.02416l-0.56434,-0.39888c-0.01186,-0.00827 -0.0236,-0.01675 -0.03524,-0.02546l-0.55366,-0.41389c-0.01203,-0.00914 -0.02394,-0.01828 -0.03573,-0.02742l-0.54222,-0.42891c-0.01218,-0.00958 -0.02423,-0.01936 -0.03614,-0.02938l-0.52997,-0.44327c-0.01228,-0.01045 -0.02441,-0.02089 -0.03639,-0.03133l-0.5169,-0.45894c-0.01234,-0.01088 -0.02451,-0.02198 -0.03651,-0.03329l-0.50298,-0.47461c-0.01234,-0.01132 -0.0245,-0.02307 -0.03648,-0.03525l-0.48821,-0.48898c-0.01227,-0.01262 -0.02435,-0.02524 -0.03623,-0.03787l-0.47259,-0.50399c-0.01215,-0.01306 -0.02409,-0.02633 -0.03581,-0.03982l-0.45615,-0.519c-0.01195,-0.01349 -0.02368,-0.02742 -0.03518,-0.04178l-0.43889,-0.53337c-0.0117,-0.01436 -0.02316,-0.02894 -0.03438,-0.04374l-0.42087,-0.54838c-0.01136,-0.0148 -0.02246,-0.02959 -0.03332,-0.04439l-0.40212,-0.56274c-0.01097,-0.01523 -0.02168,-0.03068 -0.03212,-0.04635l-0.38273,-0.57515c-0.0105,-0.0161 -0.02074,-0.0322 -0.03069,-0.04831l-0.36276,-0.58821c-0.00999,-0.0161 -0.0197,-0.03242 -0.02913,-0.04896l-0.34231,-0.60061c-0.00942,-0.01654 -0.01856,-0.03329 -0.02741,-0.05027l-0.32145,-0.6117c-0.00881,-0.01654 -0.01733,-0.03351 -0.02556,-0.05092l-0.30032,-0.62215c-0.00817,-0.01697 -0.01605,-0.03416 -0.02364,-0.05158l-0.27898,-0.63194c-0.0075,-0.01697 -0.01472,-0.03416 -0.02165,-0.05158l-0.25757,-0.64108c-0.00683,-0.01697 -0.01338,-0.03416 -0.01963,-0.05158l-0.23619,-0.64957c-0.00615,-0.01697 -0.01203,-0.03395 -0.01763,-0.05092l-0.21492,-0.65741c-0.00549,-0.01654 -0.01069,-0.03329 -0.0156,-0.05027l-0.19382,-0.66328c-0.00488,-0.01654 -0.00946,-0.03329 -0.01377,-0.05027l-0.173,-0.66915c-0.00422,-0.0161 -0.00818,-0.03242 -0.01188,-0.04896l-0.15263,-0.67373c-0.00361,-0.0161 -0.00699,-0.0322 -0.01012,-0.04831l-0.13266,-0.67829c-0.00304,-0.01567 -0.00587,-0.03133 -0.00849,-0.047l-0.11307,-0.68155c-0.00253,-0.01523 -0.00483,-0.03046 -0.00692,-0.0457l-0.09414,-0.68482c-0.002,-0.0148 -0.00383,-0.02959 -0.00549,-0.04439l-0.07566,-0.68678c-0.00156,-0.01436 -0.00296,-0.02872 -0.00418,-0.04309l-0.05778,-0.68874c-0.00117,-0.01349 -0.00217,-0.0272 -0.003,-0.04113l-0.04054,-0.69005c-0.00079,-0.01349 -0.00139,-0.02677 -0.00183,-0.03982l-0.02389,-0.69135c-0.00048,-0.01262 -0.00079,-0.02546 -0.00091,-0.03852l-0.00784,-0.6907l-0.00006,-0.78928v-44.92798l0.00079,-0.22568l0.01312,-0.71603c0.00026,-0.01302 0.00065,-0.026 0.00117,-0.03898l0.02912,-0.69056c0.00057,-0.01349 0.0013,-0.02698 0.00222,-0.04048l0.04596,-0.68965c0.00096,-0.01397 0.00207,-0.02794 0.00333,-0.04191l0.06345,-0.68828c0.0013,-0.01445 0.00283,-0.02888 0.00457,-0.04328l0.08147,-0.68639c0.00178,-0.01488 0.00377,-0.02977 0.00594,-0.04465l0.10008,-0.6839c0.00222,-0.01537 0.00468,-0.03068 0.00738,-0.04596l0.11927,-0.68084c0.00274,-0.0158 0.00573,-0.03153 0.00895,-0.0472l0.13892,-0.67705c0.00335,-0.01619 0.00692,-0.03232 0.01071,-0.04838l0.15903,-0.67262c0.00391,-0.0165 0.00808,-0.03293 0.01247,-0.04929l0.17966,-0.66746c0.00448,-0.01675 0.00925,-0.03347 0.0143,-0.05014l0.20049,-0.66145c0.00518,-0.01697 0.01062,-0.03388 0.01632,-0.05073l0.22162,-0.65466c0.00581,-0.01719 0.0119,-0.03425 0.01827,-0.05118l0.24297,-0.64709c0.00648,-0.01723 0.01324,-0.03436 0.02028,-0.05138l0.26438,-0.6386c0.00713,-0.01723 0.01457,-0.03436 0.02229,-0.05138l0.28578,-0.62933c0.00779,-0.01715 0.01588,-0.03416 0.02426,-0.05105l0.30706,-0.61921c0.00842,-0.01701 0.01714,-0.03386 0.02615,-0.05053l0.32812,-0.60838c0.00904,-0.01671 0.01835,-0.03329 0.02796,-0.04974l0.34886,-0.59669c0.0096,-0.01641 0.01948,-0.03264 0.02964,-0.0487l0.36916,-0.58435c0.01012,-0.01602 0.0205,-0.03186 0.03116,-0.04753l0.38896,-0.5713c0.01058,-0.01554 0.02142,-0.0309 0.03252,-0.04609l0.40815,-0.55778c0.01098,-0.01501 0.02221,-0.02983 0.03368,-0.04446l0.42668,-0.54374c0.01131,-0.0144 0.02286,-0.02864 0.03465,-0.04269l0.44446,-0.52932c0.01158,-0.01379 0.02338,-0.0274 0.03541,-0.0408l0.46146,-0.51456c0.01178,-0.01314 0.02378,-0.02609 0.03598,-0.03884l0.47764,-0.49955c0.01192,-0.01249 0.02404,-0.02477 0.03634,-0.03682l0.493,-0.48447c0.01199,-0.01179 0.02416,-0.02339 0.0365,-0.03479l0.5075,-0.46926c0.012,-0.0111 0.02417,-0.022 0.03649,-0.03271l0.52114,-0.45405c0.01196,-0.0104 0.02408,-0.02065 0.03634,-0.03075l0.53395,-0.4389c0.01187,-0.00975 0.02388,-0.01934 0.03602,-0.02879l0.54595,-0.42382c0.01174,-0.00914 0.0236,-0.0181 0.03559,-0.0269l0.55714,-0.40907c0.01157,-0.00849 0.02325,-0.01682 0.03504,-0.02501l0.56757,-0.39444c0.01137,-0.00792 0.02285,-0.01569 0.03441,-0.02331l0.57728,-0.38015c0.01115,-0.00731 0.02238,-0.01452 0.0337,-0.02161l0.58628,-0.36604c0.0109,-0.00683 0.02188,-0.01351 0.03293,-0.02004l0.59463,-0.35233l3.07755,-1.77695l2.99298,-1.72805l2.99304,-1.72798l0.59858,-0.34561l1.19723,-0.69122l1.79575,-1.03683l0.59865,-0.34554l2.3944,-1.38244l2.99298,-1.72798l5.98602,-3.45603l0.59858,-0.34561l1.19716,-0.69121l0.59865,-0.34559l5.38737,-3.11042l1.19716,-0.69121l0.59865,-0.3456l0.59858,-0.3456l0.59858,-0.3456l0.59858,-0.3456l0.59865,-0.3456l2.99298,-1.72801l0.19572,-0.11206l0.62665,-0.34663c0.01136,-0.00629 0.0228,-0.01245 0.03434,-0.01847l0.61262,-0.32007c0.01197,-0.00626 0.024,-0.01236 0.0361,-0.01832l0.62025,-0.30502c0.01258,-0.00619 0.02522,-0.01221 0.03793,-0.01807l0.62783,-0.28921c0.01319,-0.00607 0.02644,-0.01198 0.03976,-0.0177l0.63514,-0.27263c0.01379,-0.00592 0.02768,-0.01166 0.04165,-0.01721l0.64232,-0.25527c0.01445,-0.00573 0.02896,-0.01127 0.04354,-0.0166l0.64924,-0.23713c0.01501,-0.0055 0.03014,-0.01077 0.04537,-0.01583l0.65583,-0.21823c0.01563,-0.00521 0.03133,-0.01018 0.04714,-0.01493l0.66204,-0.19856c0.01628,-0.00487 0.0326,-0.00949 0.04896,-0.01386l0.66778,-0.17818c0.0168,-0.00448 0.03366,-0.0087 0.05059,-0.01265l0.67307,-0.15711c0.01732,-0.00404 0.03469,-0.0078 0.0521,-0.01128l0.67784,-0.1354c0.01776,-0.00355 0.03556,-0.0068 0.0534,-0.00977l0.68189,-0.11312c0.01815,-0.00302 0.03637,-0.00573 0.05464,-0.00813l0.68521,-0.09035c0.01854,-0.00243 0.03708,-0.00457 0.05562,-0.00638l0.68795,-0.06718c0.01876,-0.00183 0.03754,-0.00335 0.05634,-0.00454l0.68979,-0.04368c0.01893,-0.0012 0.03789,-0.00207 0.05686,-0.00263l0.69089,-0.02c0.01902,-0.00055 0.03804,-0.00078 0.05706,-0.00067l0.69115,0.00378c0.01902,0.00011 0.03804,0.00054 0.05706,0.0013l0.69064,0.02754c0.01889,0.00075 0.03777,0.00183 0.05666,0.00323l0.68933,0.05118c0.01871,0.00139 0.03743,0.0031 0.05614,0.00513l0.6871,0.07457c0.01849,0.002 0.03695,0.00432 0.05536,0.00694l0.68424,0.09763c0.01815,0.00259 0.03625,0.00548 0.05431,0.00867l0.68058,0.12025c0.01776,0.00314 0.03545,0.00655 0.05308,0.01027l0.67634,0.14235c0.01728,0.00364 0.03449,0.00755 0.05164,0.01173l0.6715,0.16386c0.01675,0.00409 0.03343,0.00844 0.05,0.01305l0.66608,0.18473c0.01619,0.00449 0.03232,0.00923 0.04838,0.01421l0.66008,0.20489c0.01563,0.00484 0.03116,0.00992 0.04661,0.01522l0.65381,0.22432c0.01501,0.00515 0.02995,0.01052 0.04478,0.01609l0.64702,0.24298c0.0144,0.00541 0.02872,0.01101 0.04296,0.0168l0.64017,0.26087c0.01349,0.00561 0.0272,0.0114 0.04113,0.01738l0.6326,0.27798c0.01306,0.00578 0.02611,0.01172 0.03917,0.01783l0.62541,0.29432c0.01262,0.0059 0.02503,0.01195 0.03721,0.01815l0.61823,0.30989c0.01175,0.00599 0.02351,0.01211 0.03525,0.01838l0.6104,0.3247c0.01132,0.00604 0.02263,0.01221 0.03395,0.01851l0.60257,0.33879l0.08422,0.04882l1.79594,1.0368l4.19053,2.41921l1.79529,1.0368l5.98648,3.45602l0.59865,0.34559l0.59865,0.34562l0.59799,0.34561l1.79594,1.03677l2.99324,1.72805l0.59865,0.34554l0.59865,0.34561l5.38718,3.11042l1.1973,0.69122l2.39459,1.38238l5.38718,3.11042l2.39459,1.38244l0.59865,0.34554l0.59799,0.34561l0.1952,0.11359l0.61366,0.36938c0.01132,0.00675 0.02242,0.0136 0.03329,0.02056l0.58363,0.37048c0.01132,0.00723 0.02263,0.0146 0.03395,0.02213l0.57384,0.38465c0.01175,0.00779 0.02329,0.01573 0.0346,0.02383l0.5647,0.39907c0.01175,0.00836 0.02351,0.01689 0.03525,0.02559l0.5536,0.41377c0.01219,0.00897 0.02416,0.0181 0.03591,0.02742l0.54185,0.42865c0.01219,0.00962 0.02438,0.01944 0.03656,0.02944l0.52945,0.44366c0.01262,0.01027 0.02481,0.02072 0.03656,0.03133l0.51705,0.45887c0.01219,0.01097 0.02438,0.02211 0.03656,0.03343l0.50268,0.47402c0.01262,0.01166 0.02481,0.02348 0.03656,0.03545l0.48832,0.4893c0.01219,0.01227 0.02438,0.02477 0.03656,0.03747l0.472,0.50438c0.01219,0.01292 0.02416,0.02607 0.03591,0.03943l0.45633,0.51926c0.01219,0.01362 0.02394,0.02744 0.03525,0.04145l0.4387,0.53395c0.01175,0.01419 0.02329,0.02859 0.0346,0.04322l0.42108,0.54825c0.01132,0.0148 0.02242,0.02979 0.03329,0.04498l0.40215,0.56215c0.01088,0.01537 0.02154,0.03088 0.03199,0.04654l0.38256,0.57554c0.01045,0.0158 0.02067,0.03177 0.03068,0.04792l0.36298,0.58833c0.01001,0.01619 0.01958,0.03256 0.02872,0.04909l0.34273,0.60048c0.00914,0.0165 0.01828,0.03317 0.02742,0.05l0.3212,0.6119c0.00871,0.01675 0.01719,0.03366 0.02546,0.05073l0.3003,0.62248c0.00827,0.01693 0.0161,0.03399 0.02351,0.05118l0.27941,0.6324c0.0074,0.01701 0.01458,0.03414 0.02154,0.05138l0.25787,0.64141c0.00653,0.01701 0.01306,0.03414 0.01958,0.05138l0.23568,0.64957c0.00653,0.01693 0.01241,0.03395 0.01762,0.05105l0.21543,0.65695c0.00522,0.01675 0.01045,0.0336 0.01567,0.05053l0.19324,0.66341c0.00522,0.01658 0.0098,0.03323 0.01371,0.04994l0.17365,0.66915c0.00391,0.01628 0.00784,0.03262 0.01175,0.04903l0.15276,0.67412c0.00348,0.01593 0.00675,0.03192 0.0098,0.04798l0.13252,0.67829c0.00304,0.01558 0.00587,0.03121 0.00849,0.04688l0.11294,0.68182c0.00261,0.01519 0.005,0.0304 0.00718,0.04563l0.09401,0.68475c0.00217,0.01471 0.00413,0.02944 0.00587,0.04419l0.07507,0.68704c0.00174,0.01428 0.00326,0.02857 0.00457,0.04289l0.05745,0.68874c0.0013,0.01379 0.00239,0.02762 0.00326,0.04145l0.04048,0.68998c0.00087,0.01332 0.00152,0.02663 0.00196,0.03995l0.02351,0.69083c0.00087,0.01284 0.0013,0.0257 0.0013,0.03858l0.00784,0.69115zM336.09883,162.94738l-0.00718,-0.67183l-0.02285,-0.6514l-0.03787,-0.64931l-0.05484,-0.6465l-0.07051,-0.6437l-0.08813,-0.63971l-0.10511,-0.63586l-0.12339,-0.63038l-0.14166,-0.626l-0.16059,-0.6196l-0.17888,-0.61334l-0.19846,-0.60603l-0.21739,-0.59806l-0.23698,-0.59029l-0.25656,-0.58089l-0.2755,-0.57175l-0.29508,-0.56124l-0.31401,-0.55105l-0.33295,-0.53963l-0.35123,-0.52841l-0.3695,-0.51626l-0.38648,-0.50411l-0.40476,-0.49171l-0.42043,-0.47879l-0.43609,-0.4658l-0.45241,-0.453l-0.46612,-0.43949l-0.48048,-0.42663l-0.49354,-0.41312l-0.5066,-0.40038l-0.51835,-0.38713l-0.5288,-0.37427l-0.54054,-0.3618l-0.54969,-0.3492l-0.5536,-0.33386l-0.18475,-0.10759l-2.99324,-1.72805l-0.59865,-0.34554l-5.38718,-3.11042l-2.99324,-1.72805l-0.59865,-0.34554l-5.38718,-3.11042l-2.39459,-1.38244l-1.1973,-0.69115l-2.39459,-1.38244l-0.59799,-0.34561l-0.59865,-0.34561l-0.59865,-0.34554l-5.98648,-3.45604l-1.79529,-1.0368l-4.19053,-2.41921l-1.79594,-1.0368l-0.05223,-0.03022l-0.58559,-0.32931l-0.57515,-0.30628l-0.58167,-0.29161l-0.58683,-0.27626l-0.59277,-0.26038l-0.59806,-0.24374l-0.60315,-0.2265l-0.60805,-0.20862l-0.61262,-0.19016l-0.6168,-0.17107l-0.62065,-0.15146l-0.62398,-0.13134l-0.62698,-0.11077l-0.6294,-0.08981l-0.63135,-0.06852l-0.63279,-0.04698l-0.63377,-0.02527l-0.6341,-0.00347l-0.6339,0.01836l-0.63311,0.0401l-0.63188,0.0617l-0.63011,0.08308l-0.62776,0.10415l-0.62502,0.12484l-0.62169,0.14511l-0.6181,0.16491l-0.61399,0.18414l-0.60955,0.20284l-0.60472,0.22088l-0.59976,0.23834l-0.59441,0.25513l-0.58892,0.27133l-0.58324,0.28681l-0.5775,0.30172l-0.56594,0.31265l-0.1854,0.10617l-2.99298,1.72801l-0.59865,0.3456l-0.59858,0.34559l-1.19716,0.69121l-0.59865,0.3456l-0.59858,0.3456l-0.59858,0.34559l-5.38737,3.11044l-0.59865,0.34561l-0.59858,0.34561l-1.19716,0.69115l-5.98602,3.45603l-2.99298,1.72798l-2.3944,1.38244l-0.59865,0.34561l-0.59858,0.34561l-1.19716,0.69115l-1.19723,0.69122l-0.59858,0.34561l-2.99298,1.72805l-2.99304,1.72798l-3.0451,1.75795l-0.57803,0.34254l-0.55297,0.34528l-0.54327,0.35769l-0.53274,0.37029l-0.52191,0.38315l-0.51005,0.39601l-0.49779,0.40913l-0.48472,0.42232l-0.47098,0.43544l-0.45652,0.44863l-0.4415,0.46175l-0.42574,0.47474l-0.40941,0.4876l-0.39247,0.50014l-0.37502,0.51254l-0.35711,0.52455l-0.33876,0.53617l-0.32004,0.5474l-0.30106,0.55817l-0.28184,0.56836l-0.26251,0.57808l-0.24311,0.58722l-0.2237,0.59577l-0.20438,0.60368l-0.1852,0.61099l-0.16623,0.61771l-0.14752,0.62378l-0.12913,0.62926l-0.11109,0.63423l-0.09346,0.63854l-0.07626,0.64239l-0.0595,0.64565l-0.04322,0.64846l-0.02745,0.65107l-0.01222,0.64637l-0.00077,0.21381v44.92798l-0.00011,0.75141l0.00761,0.67177l0.02254,0.65153l0.03816,0.64957l0.05428,0.64631l0.07088,0.6437l0.08795,0.63977l0.10544,0.63586l0.12336,0.63064l0.14165,0.62541l0.16025,0.62019l0.17915,0.61301l0.19825,0.60583l0.2176,0.59865l0.23689,0.58951l0.25636,0.58167l0.27578,0.57123l0.29488,0.56144l0.31414,0.55099l0.33278,0.53989l0.35128,0.52814l0.36952,0.51639l0.38686,0.50399l0.40418,0.49158l0.42057,0.47918l0.43661,0.46547l0.45177,0.45306l0.46646,0.43935l0.48059,0.42695l0.49353,0.41324l0.50622,0.40018l0.51814,0.38713l0.52948,0.37407l0.54017,0.36233l0.54985,0.34862l0.55372,0.33425l0.18472,0.10707l0.59857,0.346l0.59865,0.34535l5.38737,3.11075l1.19716,0.6907l0.59865,0.346l2.3944,1.38205l1.19716,0.69135l5.38744,3.11075l1.19716,0.6907l2.99298,1.72805l4.78885,2.76475l1.79575,1.03735l0.59865,0.34535l0.59858,0.34535l0.59858,0.346l1.79582,1.0367l5.38737,3.1101l0.59865,0.346l1.84778,1.06673l0.5854,0.32902l0.5758,0.30683l0.58141,0.29182l0.58709,0.27615l0.59245,0.25983l0.59826,0.24416l0.60315,0.22653l0.60805,0.20826l0.61268,0.19063l0.61686,0.17104l0.62039,0.15146l0.62418,0.13122l0.62691,0.11098l0.6292,0.08943l0.63161,0.06855l0.63273,0.047l0.63396,0.02546l0.63377,0.00326l0.6339,-0.01828l0.63319,-0.03982l0.63207,-0.06202l0.63011,-0.08291l0.62737,-0.10445l0.62529,-0.12469l0.62183,-0.14493l0.61778,-0.16517l0.61425,-0.1841l0.60935,-0.20303l0.60511,-0.22066l0.59923,-0.23829l0.59473,-0.25526l0.58846,-0.27092l0.58363,-0.28724l0.57711,-0.30161l0.566,-0.31271l0.18606,-0.10641l1.79529,-1.0367l2.39459,-1.38205l5.38718,-3.11075l3.59189,-2.0734l5.38718,-3.11075l1.1973,-0.6907l0.59865,-0.346l1.1973,-0.6907l0.59865,-0.346l1.79594,-1.0367l4.18988,-2.4194l5.38718,-3.1101l0.59865,-0.346l1.1973,-0.6907l4.24276,-2.44943l0.57776,-0.34273l0.55295,-0.34535l0.54316,-0.3571l0.53337,-0.37081l0.52161,-0.38256l0.50986,-0.39627l0.49746,-0.40933l0.48505,-0.42238l0.47134,-0.43544l0.45633,-0.4485l0.44131,-0.46156l0.42565,-0.47461l0.40933,-0.48767l0.39301,-0.50072l0.37473,-0.51182l0.3571,-0.52488l0.33882,-0.53598l0.31989,-0.54773l0.30095,-0.55817l0.28202,-0.56796l0.26244,-0.57841l0.2435,-0.5869l0.22327,-0.59603l0.20434,-0.60387l0.1854,-0.61105l0.16647,-0.61758l0.14754,-0.62411l0.12861,-0.62868l0.11164,-0.63455l0.09336,-0.63782l0.07638,-0.64304l0.05941,-0.64565l0.04309,-0.64826l0.02742,-0.65087l0.01241,-0.64631l0.00065,-0.21413z" data-paper-data="{&quot;isPathIcon&quot;:true}"></path></g></g></g></svg>